<svg xmlns="http://www.w3.org/2000/svg" viewBox="0 0 847.7 223.39"><defs><style>.cls-1{fill:#222;}</style></defs><title>logo blackAsset 2</title><g id="Layer_2" data-name="Layer 2"><g id="Layer_1-2" data-name="Layer 1"><path class="cls-1" d="M648.47,46.63V175.12H612.86L564,116.75v58.37H521.82V46.63h35.61L606.25,105V46.63Z"/><path class="cls-1" d="M512.83,142.44v32.68H411.51V46.63H512.83V79.3H454.1v15l58.73-.3v31.2l-58.73.31v16.88Z"/><path class="cls-1" d="M273.81,110.87c0-39.46,30.29-67.18,71.59-67.18,25.15,0,45,9.18,57.63,25.7L375.68,93.8c-7.52-9.54-16.51-15-28.08-15-18,0-30.1,12.48-30.1,32.12S329.61,143,347.6,143c11.57,0,20.56-5.5,28.08-15.05L403,152.36c-12.66,16.52-32.48,25.69-57.63,25.69C304.1,178.05,273.81,150.34,273.81,110.87Z"/><path class="cls-1" d="M110.08,123.6,97.6,91.29,85.12,123.6,73.19,154.8l-8.63,22.4h-44L98,0l21.29,48.71L175.43,177.2H130.64L122,154.8Z"/><path class="cls-1" d="M198.19,84.81c0-4.41,4-8.08,16.7-8.08,11.2,0,23.13,3.12,35.79,9.55l13-31.39c-13.4-7.53-31.21-11.2-48.46-11.2-39.83,0-59.84,19.46-59.84,43.32,0,47.91,71,34.88,71,51,0,4.4-4.4,7-16.7,7-13.86,0-29.64-4.41-41.67-11.33l16.83,38.5,1.72,3.94a137.39,137.39,0,0,0,22.75,1.93c39.83,0,59.84-19.82,59.84-43.32C269.22,87.38,198.19,100.23,198.19,84.81Z"/><path class="cls-1" d="M657.48,46.63H720.8c43,0,72.51,24.41,72.51,64.24s-29.55,64.25-72.51,64.25H657.48ZM719,141.34c18.17,0,30.65-10.83,30.65-30.47S737.14,80.4,719,80.4H700.8v60.94Z"/><path class="cls-1" d="M12,195.87H726.22s92.7,2.8,92.7-82.92-85.37-86-85.37-86h-597L124.49,0H734.72s113,1.75,113,113S725.39,223.39,725.39,223.39H0Z"/></g></g></svg>